<?xml version="1.0" encoding="UTF-8"?>
<svg version="1.1" xmlns="http://www.w3.org/2000/svg" width="320" height="320">
<path d="M0 0 C7.98829341 0.4829021 15.62375516 2.90199977 23.30859375 4.99609375 C24.86846023 5.41681728 26.42846181 5.83704015 27.98858643 6.25680542 C31.36036891 7.16507987 34.73122849 8.07667804 38.10140991 8.99087524 C43.52622419 10.462347 48.9529971 11.92649936 54.38012695 13.3894043 C60.16925628 14.9502058 65.9582642 16.51144929 71.74662781 18.0750885 C86.09215043 21.94995154 100.44287695 25.80509547 114.796875 29.6484375 C115.82566206 29.92391293 116.85444912 30.19938835 117.91441154 30.48321152 C122.06853113 31.59549961 126.22267645 32.70769152 130.37686062 33.81973839 C161.03594749 42.02712848 191.69139084 50.248131 222.33517838 58.51247787 C224.35802206 59.05792203 226.3809505 59.6030508 228.40390015 60.14810181 C232.04823061 61.13010962 235.69212827 62.11371601 239.3359375 63.09765625 C240.91733772 63.52374176 240.91733772 63.52374176 242.53068542 63.95843506 C243.48268326 64.21586487 244.43468109 64.47329468 245.41552734 64.73852539 C246.64545914 65.07056725 246.64545914 65.07056725 247.90023804 65.40931702 C249.61439834 65.89152659 251.31068521 66.43689507 253 67 C252.39764194 72.72905904 251.33380827 78.08810149 249.82055664 83.64038086 C249.59828116 84.47288864 249.37600569 85.30539642 249.14699459 86.16313171 C248.40642525 88.9317487 247.6582934 91.69826301 246.91015625 94.46484375 C246.37689269 96.45239441 245.84410855 98.44007374 245.31176758 100.4278717 C243.86910671 105.80969191 242.41995268 111.1897446 240.9696846 116.56951904 C239.44582881 122.22693131 237.92813143 127.88599493 236.40991211 133.54492188 C233.88038069 142.97068108 231.34755362 152.3955488 228.8125 161.81982422 C225.14863045 175.44164482 221.49445228 189.06605155 217.84375 202.69140625 C217.55608702 203.76501844 217.26842403 204.83863064 216.97204399 205.94477654 C215.82929519 210.20979325 214.68655916 214.47481337 213.54390621 218.73985577 C211.67443546 225.71743711 209.80356137 232.69464092 207.93188477 239.67163086 C207.17297795 242.50103147 206.41409628 245.33043882 205.65522575 248.15984917 C205.16235224 249.9973026 204.66938924 251.83473204 204.17633247 253.67213631 C201.30955005 264.35596782 198.45482459 275.0428927 195.61669922 285.734375 C195.05759681 287.8386298 194.49846932 289.94287793 193.9393158 292.04711914 C192.87061695 296.06910494 191.80477777 300.09183424 190.74049377 304.11499023 C190.25996394 305.92434476 189.77933296 307.73367244 189.29858398 309.54296875 C189.07959631 310.37395081 188.86060863 311.20493286 188.63498497 312.06109619 C187.11366295 317.7726741 187.11366295 317.7726741 186 320 C176.1995486 319.48503579 167.1177364 316.82371548 157.703125 314.2421875 C155.86867448 313.7455456 154.03402344 313.24964383 152.19918823 312.75442505 C148.27040824 311.69251627 144.34298266 310.62578578 140.41656494 309.55517578 C134.17419059 307.85317424 127.92894152 306.16190391 121.68310547 304.47265625 C115.21675428 302.72337087 108.75052772 300.97363925 102.2852478 299.22039795 C82.6993117 293.90993438 63.09661307 288.66329535 43.48947144 283.4317627 C34.67821613 281.08050653 25.86841044 278.72382712 17.05859375 276.3671875 C16.21413507 276.14129944 15.3696764 275.91541138 14.49962807 275.68267822 C8.66630076 274.12222611 2.83310553 272.56128093 -3 271 C-3.81642723 270.7814888 -4.63285446 270.5629776 -5.47402191 270.33784485 C-15.52621529 267.64724388 -25.57725145 264.95239169 -35.62628174 262.25 C-38.39357049 261.50594347 -41.1612783 260.76347854 -43.92938232 260.02246094 C-47.66878508 259.02135544 -51.40674176 258.01492582 -55.14453125 257.0078125 C-56.79375832 256.56745163 -56.79375832 256.56745163 -58.4763031 256.11819458 C-59.95720177 255.71768387 -59.95720177 255.71768387 -61.46801758 255.30908203 C-62.32559158 255.07867218 -63.18316559 254.84826233 -64.06672668 254.61087036 C-66 254 -66 254 -67 253 C-66.53112614 246.48095706 -65.24897546 240.44063726 -63.54174805 234.14672852 C-63.16481292 232.72603986 -63.16481292 232.72603986 -62.78026295 231.27665043 C-61.94697284 228.14237258 -61.10440911 225.01066861 -60.26171875 221.87890625 C-59.66706069 219.65024013 -59.07295662 217.42142613 -58.47937012 215.19247437 C-56.88677249 209.21899489 -55.28599639 203.24773563 -53.6835289 197.27689743 C-52.35107297 192.30789414 -51.02351228 187.33758893 -49.69606495 182.36724567 C-41.12725393 150.28343816 -32.50340518 118.21431597 -23.80810547 86.16455078 C-23.03597653 83.31807622 -22.26399442 80.4715619 -21.4921875 77.625 C-21.21256983 76.59374308 -21.21256983 76.59374308 -20.92730331 75.54165268 C-18.00664283 64.76507874 -15.12292468 53.9789662 -12.2578125 43.1875 C-11.87468494 41.7453243 -11.49155207 40.30315 -11.1084137 38.86097717 C-9.65753272 33.39788583 -8.20685601 27.9347495 -6.76522827 22.46920776 C-5.81099921 18.85245703 -4.85303227 15.23671419 -3.89453125 11.62109375 C-3.61332428 10.549198 -3.33211731 9.47730225 -3.04238892 8.3729248 C-2.78581512 7.40737671 -2.52924133 6.44182861 -2.26489258 5.44702148 C-1.93235222 4.18631081 -1.93235222 4.18631081 -1.59309387 2.90013123 C-1 1 -1 1 0 0 Z " fill="#0066FF" transform="translate(67,0)"/>
<path d="M0 0 C4.41854291 3.11306432 8.02390999 6.75922996 9.75 11.9375 C9.953125 13.98828125 9.953125 13.98828125 10 16.25 C10.03867187 17.35794922 10.03867187 17.35794922 10.078125 18.48828125 C9.35486645 23.8868897 6.31497059 27.7473057 2.55488586 31.49337769 C1.70093231 32.35145523 0.84697876 33.20953278 -0.03285217 34.09361267 C-0.96649094 35.01646561 -1.9001297 35.93931854 -2.86206055 36.89013672 C-3.85820897 37.88543815 -4.85369574 38.88140219 -5.84857178 39.87797546 C-8.54204635 42.5723086 -11.24465113 45.25730999 -13.94902015 47.94070196 C-16.77712062 50.75001254 -19.5966932 53.56785595 -22.41719055 56.38479614 C-27.7553644 61.71365633 -33.10113747 67.03482476 -38.44969922 72.35325634 C-44.54022463 78.41021665 -50.62220485 84.47572663 -56.70349061 90.54196143 C-69.20952497 103.01666214 -81.72622313 115.48061297 -94.25 127.9375 C-97.95178575 126.201802 -100.34959708 124.09719518 -103.26220703 121.19995117 C-103.74725708 120.72001205 -104.23230713 120.24007294 -104.73205566 119.74559021 C-106.32916683 118.162345 -107.9187741 116.57181331 -109.5078125 114.98046875 C-110.61809705 113.8740726 -111.72860452 112.7679001 -112.83932495 111.66194153 C-115.16437193 109.34435019 -117.485513 107.02292901 -119.80419922 104.69897461 C-122.77270964 101.7246687 -125.7524306 98.76188491 -128.73541451 95.802104 C-131.03121039 93.52105502 -133.3200258 91.23310046 -135.60689926 88.94310951 C-136.70255859 87.84796285 -137.80057747 86.75517148 -138.90100479 85.6648159 C-140.44015042 84.13803648 -141.96941302 82.60197912 -143.49658203 81.06323242 C-144.36832062 80.19212326 -145.2400592 79.3210141 -146.13821411 78.42350769 C-150.1366061 73.71657538 -150.70481697 69.36228998 -150.5625 63.3671875 C-149.90957521 58.29069724 -146.8302228 55.3216628 -143.125 52.125 C-139.46010525 49.33649313 -137.66317802 48.72683514 -133.125 48.5625 C-132.21492188 48.51351562 -131.30484375 48.46453125 -130.3671875 48.4140625 C-120.61514071 50.05162424 -113.84230441 58.99468215 -107.25 65.75 C-106.17909234 66.83598402 -105.10748298 67.92127655 -104.03515625 69.00585938 C-101.43196555 71.64181611 -98.83839646 74.28700495 -96.25 76.9375 C-93.36164259 75.62989537 -91.30849467 74.24097258 -89.08268738 71.99050903 C-88.18088493 71.08632736 -88.18088493 71.08632736 -87.26086426 70.16387939 C-86.6129895 69.50410095 -85.96511475 68.84432251 -85.29760742 68.16455078 C-84.60601028 67.46842682 -83.91441315 66.77230286 -83.20185852 66.05508423 C-81.70135636 64.54362798 -80.203135 63.02990482 -78.70693016 61.51419449 C-76.33640257 59.11350371 -73.95925913 56.71955123 -71.58015442 54.32736206 C-64.81725885 47.52471893 -58.06705501 40.70953159 -51.32006836 33.89111328 C-47.19155549 29.71981996 -43.05570635 25.55591303 -38.9154911 21.39623642 C-37.34135783 19.8115527 -35.7701454 18.2239619 -34.2019558 16.63339615 C-32.00497865 14.40512779 -29.79884976 12.18630405 -27.59057617 9.96923828 C-26.94877411 9.3135083 -26.30697205 8.65777832 -25.64572144 7.98217773 C-18.04443786 0.39627565 -10.75501211 -3.51606165 0 0 Z " fill="#FCFDFF" transform="translate(230.25,96.0625)"/>
</svg>
